# xmcd CD database file
#
# Track frame offsets:
#	150
#	14974
#	29835
#	44237
#	57502
#	72232
#	85821
#	99238
#	113179
#	125825
#	139156
#	151347
#	164674
#	176596
#	188429
#	200385
#	215060
#
# Disc length: 3108 seconds
#
# Revision: 0
# Processed by: cddbd v1.5PL3 Copyright (c) Steve Scherf et al.
# Submitted via: CDex 1.51
#
DISCID=080c2211
DTITLE=Ella Fitsgerald - Les Grandes Chansons d'Amour - Les Grands Compositeurs
DYEAR=1900
DGENRE=Jazz
TTITLE0=Someone To Watch Over Me
TTITLE1=How Long Has This Been Going On ?
TTITLE2=People Will Say We're In Love
TTITLE3=Angel Eyes
TTITLE4=I've Got A Crush On You
TTITLE5=My Man (Mon Homme)
TTITLE6=I Got It Bad And That Ain't
TTITLE7=The One I Love (Belongs To Somebody Else)
TTITLE8=Can't Help Lovin' Dat Man
TTITLE9=I' M Just A Lucky Sa-And-So
TTITLE10=It Might As Well Be Spring
TTITLE11=I'm Gonna Wash That Man Right Outa My Hair
TTITLE12=Nice Work If You Can Get It
TTITLE13=Imagination
TTITLE14=My Heart Belongs To Daddy
TTITLE15=But Not For Me
TTITLE16=Stardust
EXTD=
EXTT0=
EXTT1=
EXTT2=
EXTT3=
EXTT4=
EXTT5=
EXTT6=
EXTT7=
EXTT8=
EXTT9=
EXTT10=
EXTT11=
EXTT12=
EXTT13=
EXTT14=
EXTT15=
EXTT16=
PLAYORDER=
